<?xml version="1.0" standalone="no"?>
<svg viewBox="-350 -150 1500 1500" style="width: 585px; height: 585px; justify-content: center; align-self: center; transform: scale(1, 1);" xmlns="http://www.w3.org/2000/svg"><rect x="-350" y="-150" width="100%" height="100%" fill="#FFD55A" rx="30"></rect><g transform="rotate(0 467.1740970611572 585.7925415039062)"><g transform="translate(0 459)"><path d="M784.259 98.1183C773.942 69.7013 781.692 33.7233 760.426 10.2093C754.136 6.38629 750.8 8.51329 748.211 15.1793C746.648 23.9513 742.986 54.1543 756.156 54.1403C757.813 73.0033 756.777 92.0033 752.721 110.515C743.001 108.956 735.915 113.951 728.825 117.666C723.538 120.436 718.249 122.494 711.864 120.593C685.505 115.947 677.993 143.627 677.673 166.221C677.286 177.245 676.25 202.943 671.394 213.64C649.416 168.123 603.258 147.4 559.277 137.168C552.383 135.261 546.5 132.655 542.078 128.201C505.022 113.57 522.824 65.6343 505.776 38.0843C479.092 5.33229 447.046 -4.09171 406.674 1.52129C371.351 5.42729 347.34 41.3083 349.518 75.1773C350.171 82.0883 346.023 89.3573 343.583 96.4693C319.201 125.644 281.262 138.697 248.631 156.326C139.794 209.52 102.076 250.171 59.7807 363.361C39.9947 405.948 16.3157 447.28 8.45169 494.183C-0.789313 549.453 -0.818313 606.031 2.39869 661.845C-3.60731 662.566 2.92869 705.472 8.19669 720.335C10.0017 725.429 14.3267 729.102 19.7157 729.017C30.5557 734.286 56.0067 755.517 67.3447 754.813C103.978 752.557 139.586 756.046 174.88 754.242C213.063 752.29 250.878 745.167 289.225 746.091C356.096 747.702 308.22 751.672 377.405 754.813C421.08 756.827 580.418 732.974 623.969 736.868C659.393 744.32 675.554 731.757 670.15 694.75C668.152 680.564 661.772 649.017 682.76 647.677C692.688 648.829 700.906 658.75 708.345 664.547C774.043 713.46 841.16 678.24 846.449 597.83C856.406 530.388 870.367 514.455 840.018 447.107C743.999 196.392 888.663 230.455 790.989 113.023C783.362 119.664 785.301 101.939 784.259 98.1183Z" transform="translate(38.98101 -67.00008)" fill="#FFFFFF" stroke="none"></path><path d="M774.431 4.04116C769.321 -0.537836 760.991 -1.81884 755.751 3.33116C750.762 8.22967 751.811 15.9534 752.693 22.4519C752.746 22.8405 752.798 23.2248 752.848 23.6038L753.285 27.0135C754.341 34.9448 755.762 42.8175 756.581 50.7812C757.561 60.4012 758.021 69.8512 758.221 79.5012C758.331 84.5912 758.371 89.6912 758.271 94.7912L758.256 95.6603C758.24 96.8104 758.247 97.9272 758.311 99.0312C756.131 99.2612 753.981 99.7312 751.881 100.472C745.401 102.751 738.952 107.911 737.421 114.791C734.261 112.401 730.561 110.611 727.161 109.261C719.791 106.341 711.011 105.531 703.421 108.161C687.371 113.712 681.311 130.751 680.281 146.331C679.601 156.661 680.611 167.081 682.681 177.302C680.911 176.341 679.141 175.441 677.561 174.511L656.108 161.856C645.131 155.383 634.122 148.92 622.921 142.841C603.971 132.561 583.801 124.331 562.381 124.341C562.381 124.341 544.661 121.311 544.661 121.151C542.341 118.181 540.271 115.031 538.471 111.712C533.751 102.991 532.061 93.3512 528.011 84.4312C526.541 81.1712 522.331 82.7512 521.271 85.3112C516.961 95.7012 520.452 109.031 524.671 118.871C526.771 123.761 529.271 128.371 532.401 132.651C529.091 135.382 525.641 137.931 522.041 140.311C510.251 148.111 497.421 154.141 483.831 158.052C457.841 165.531 432.731 162.761 407.601 153.511C386.181 145.632 364.751 133.661 347.811 119.241C344.981 116.841 342.361 114.261 339.911 111.481L339.836 111.397L339.761 111.321C355.452 101.811 367.761 87.6412 366.661 67.6612C366.241 60.1512 354.441 60.1412 354.941 67.6612C356.161 85.9622 343.571 97.3712 328.581 104.921C319.325 104.817 309.364 107.852 300.815 111.281L299.511 111.811C293.611 114.241 287.941 117.231 282.181 119.962L281.254 120.405C280.637 120.702 280.024 121.005 279.411 121.311C263.211 125.931 247.011 130.561 231.061 135.972C206.931 144.151 183.151 154.222 161.951 168.521C140.341 183.091 122.331 201.931 106.511 222.521C41.0706 307.701 9.8906 414.781 2.0606 520.771C-0.399401 554.001 -0.619401 587.311 1.2006 620.581C2.1006 637.212 3.3506 653.931 5.5306 670.462L5.67336 671.575C7.79638 688.59 10.1759 727.908 14.8606 743.351C15.0306 743.911 15.6306 744.041 16.0306 743.811C15.7706 744.841 16.1906 746.081 17.4306 746.371C57.6452 755.796 100.059 755.673 141.151 753.62L144.231 753.462C156.307 752.828 168.369 751.996 180.426 751.081C179.345 741.759 178.155 731.975 176.926 721.856C169.308 659.179 160.128 583.645 165.387 525.344C165.846 520.249 173.849 520.218 173.387 525.344C168.118 583.749 177.34 659.555 184.964 722.233C185.889 729.829 186.789 737.233 187.638 744.39L188.353 750.47C216.676 748.245 244.975 745.683 273.351 744.201C294.054 743.12 314.759 745.333 335.465 747.547C350.481 749.152 365.497 750.758 380.512 751.106C380.559 748.935 380.837 716.071 381.302 712.935L381.331 712.78C381.437 712.352 381.636 711.753 381.866 711.055C382.805 708.215 384.282 703.744 382.358 702.554C381.093 701.772 377.537 702.422 375.068 702.874C374.235 703.026 373.525 703.156 373.07 703.2L365.789 703.913C364.576 704.031 363.362 704.147 362.149 704.261L361.836 704.289C356.322 704.769 350.816 704.154 347.712 698.891C345.021 694.328 345.639 688.415 348.359 684.032C349.772 681.755 351.675 679.758 353.59 677.903C355.327 676.221 358.17 674.253 358.332 671.583C358.617 666.885 346.002 663.777 340.323 662.558L338.557 662.19C337.83 662.042 338.088 661.056 338.719 660.994C347.671 660.111 365.888 659.391 366.584 672.14C366.87 677.358 364.251 681.566 361.357 685.616L360.82 686.362C360.77 686.429 360.708 686.511 360.638 686.604C359.764 687.761 357.513 690.739 358.572 691.842C358.532 691.8 362.775 691.177 364.518 690.936L366.787 690.639C367.477 690.545 368.186 690.443 368.909 690.34C379.472 688.827 393.087 686.878 396.267 699.9C397.586 705.302 395.08 721.586 393.781 726.821L393.77 726.869C393.472 728.271 390.802 746.578 390.254 750.696L390.159 751.462C435.993 752.798 485.816 755.403 531.601 757.341L535.328 757.497C582.538 759.449 629.804 760.5 677.041 758.531L677.129 758.528C677.505 758.516 678.248 758.506 679.265 758.492C686.811 758.393 709.445 758.095 709.341 755.041C709.122 748.619 692.65 672.118 688.328 651.418L687.751 648.632C687.557 647.689 687.61 646.721 687.662 645.75C687.688 645.275 687.714 644.802 687.711 644.331C690.452 650.701 694.921 656.531 699.551 661.111C709.081 670.531 720.721 678.121 732.391 684.632C758.341 699.121 787.441 701.811 814.961 690.851C820.271 689.671 825.16 687.311 829.721 684.291C839.681 677.701 847.901 668.552 853.881 658.241C866.678 636.217 870.31 608.465 871.788 583.281L871.941 580.561C873.391 553.132 870.821 525.962 866.601 498.871C857.291 439.161 843.141 380.222 835.041 320.321C835.971 319.401 836.741 318.321 837.321 317.031C838.651 314.071 837.021 311.451 833.881 311.041C830.767 310.632 828.03 311.338 825.165 312.078C824.323 312.296 823.469 312.516 822.591 312.712C822.141 312.811 821.691 312.901 821.231 312.972L821.376 312.417C822.285 308.692 821.971 304.779 821.661 300.922C821.57 299.788 821.48 298.659 821.421 297.541C821.131 292.052 820.841 286.561 820.681 281.061C820.381 270.441 820.521 259.802 821.561 249.222C822.621 238.441 824.831 227.831 828.441 217.621C831.821 208.031 836.561 198.951 839.351 189.151C844.751 170.212 839.641 151.601 828.871 135.621C821.782 125.101 811.771 117.281 800.681 111.291C794.621 81.6512 797.411 50.6322 785.431 22.3022C782.761 16.0012 779.631 8.69116 774.431 4.04116ZM764.91 13.0019L764.941 12.8612C765.321 12.9722 765.651 13.2122 765.931 13.5812C767.211 15.1912 768.341 16.7012 769.391 18.5012C777.259 32.0295 780.116 47.2488 783.16 62.3707L783.711 65.0912C786.511 78.7612 787.891 92.6712 790.471 106.382C788.411 105.501 786.341 104.671 784.261 103.882C778.461 101.701 772.081 99.6512 765.702 99.0412C767.361 94.0012 767.741 88.2412 768.381 83.3312L768.542 82.0466C769.63 73.0365 769.817 63.6503 769.331 54.6012C768.831 45.1912 767.301 35.8412 766.141 26.5012L766.066 25.9189C765.937 24.9603 765.779 23.9708 765.619 22.9655C765.093 19.6672 764.539 16.1976 764.891 13.0812C764.897 13.0545 764.904 13.0278 764.91 13.0019ZM760.702 107.341C752.952 107.341 745.631 109.871 739.771 116.761C741.861 118.751 743.531 121.061 744.452 123.771C747.321 122.201 750.361 120.972 753.471 120.101C762.961 117.451 775.941 117.491 783.921 124.001C788.101 127.401 783.511 133.501 779.011 132.451C774.981 131.511 771.481 129.771 767.251 129.571C763.581 129.391 759.981 129.871 756.461 130.931C751.091 132.552 746.211 135.621 742.621 139.851C741.421 141.271 740.371 142.811 739.491 144.472C732.791 157.191 737.841 175.431 747.091 185.901C743.461 173.841 747.081 159.621 754.311 149.632C763.015 137.604 776.034 136.241 789.749 138.118L790.202 138.181C803.471 140.052 819.901 143.321 829.821 153.071C828.831 150.821 827.691 148.641 826.41 146.531C818.891 134.151 806.421 124.491 793.481 117.601C791.311 116.431 789.121 115.351 786.941 114.351C778.651 110.541 769.411 107.341 760.702 107.341ZM691.271 145.621C692.481 130.531 700.961 114.861 718.481 117.431C724.351 118.291 737.381 122.811 734.631 130.731C734.521 131.052 734.401 131.361 734.261 131.651C733.181 132.811 732.181 134.041 731.281 135.341C726.687 138.738 719.112 138.307 713.291 137.976C712.63 137.939 711.991 137.902 711.382 137.873L710.651 137.841C706.101 137.671 705.051 144.861 709.571 145.851C714.821 147.011 720.501 147.901 725.931 147.281C725.671 148.321 725.461 149.371 725.301 150.421C725.051 150.472 724.811 150.521 724.561 150.561C722.751 150.861 720.921 150.851 719.101 150.701C715.911 150.462 713.641 153.991 714.421 156.851C715.271 159.921 718.801 161.222 721.551 159.741C722.702 159.132 723.801 158.451 724.861 157.691C725.341 171.361 733.161 184.382 747.531 188.311C747.671 188.351 747.801 188.341 747.911 188.291C749.461 192.231 751.921 195.802 754.991 198.691C750.571 199.281 746.231 203.021 743.841 206.281C739.351 212.441 737.761 222.071 742.871 228.151C746.361 232.311 752.391 229.472 753.952 225.231C754.858 222.782 754.899 219.985 754.94 217.191C754.97 215.183 754.999 213.176 755.351 211.302C755.991 207.891 757.471 204.731 758.391 201.441C762.901 204.561 768.301 206.341 773.952 206.101C780.311 205.831 787.421 202.712 789.901 196.451C790.741 194.341 790.861 192.331 790.611 190.361C796.351 194.241 805.681 196.481 811.191 192.661C813.291 191.201 813.741 187.791 811.191 186.431C808.428 184.956 805.945 184.803 803.097 184.775L801.091 184.761C799.691 184.746 798.297 184.653 796.905 184.559C794.646 184.407 792.391 184.256 790.121 184.441C789.791 184.472 789.481 184.561 789.202 184.701C788.731 183.241 788.251 181.771 787.911 180.271C790.391 179.722 792.771 178.821 795.051 177.472C796.181 176.791 797.251 175.321 797.081 173.921C796.44 168.618 791.413 169.935 787.076 171.072C785.525 171.478 784.063 171.861 782.921 171.911L782.702 171.925C780.315 172.123 778.439 173.976 778.391 176.431C778.331 179.231 778.861 181.871 779.671 184.552C779.826 185.058 780.039 185.629 780.265 186.236C781.046 188.328 781.99 190.857 781.301 192.701C779.321 197.921 770.531 196.911 766.681 195.261C754.264 189.959 753.343 175.006 757.359 163.802L757.611 163.121C759.871 157.212 763.621 151.052 769.571 148.281C775.069 145.73 781.552 146.055 787.503 146.723L789.021 146.901C796.161 147.761 803.311 149.212 810.291 150.981C816.871 152.641 823.321 154.611 830.131 154.861C830.282 154.871 830.41 154.811 830.511 154.731C832.681 160.081 833.961 165.741 834.151 171.561C834.452 180.722 831.681 189.351 828.321 197.751C824.921 206.251 821.241 214.561 818.831 223.411C816.441 232.141 814.91 241.132 813.931 250.121C812.801 260.391 812.521 270.741 812.651 281.061C812.721 286.561 812.891 292.052 813.171 297.541L813.196 298.089C813.234 298.966 813.257 299.855 813.281 300.75C813.39 304.905 813.502 309.187 815.081 312.972C815.211 313.291 815.391 313.581 815.601 313.841C815.044 313.911 814.486 313.977 813.928 314.041L808.542 314.634C801.067 315.43 793.568 316.016 786.061 316.291C778.291 316.571 770.281 316.501 762.581 315.421C757.001 314.641 751.781 313.171 746.531 311.552C748.978 306.349 747.332 299.8 745.885 294.045C745.751 293.513 745.619 292.988 745.492 292.471L745.012 290.489C743.062 282.553 740.552 274.778 737.181 267.321C733.641 259.491 729.311 252.291 724.241 245.351L723.715 244.626L721.754 241.936C718.77 237.864 715.487 233.627 711.651 230.481C710.531 228.321 709.531 226.071 708.541 223.831C705.291 216.411 702.621 208.712 700.161 201.001C698.631 196.201 697.171 191.321 695.871 186.382C692.401 173.061 690.181 159.321 691.271 145.621ZM349.057 191.831C347.814 184.384 354.309 176.138 362.09 180.33C365.1 181.952 366.101 186.171 364.375 189.048L364.199 189.35C364.018 189.649 363.82 189.936 363.612 190.216L363.62 190.248C364.241 190.906 364.452 192.484 364.562 193.679L364.665 194.922C364.871 197.999 364.109 200.915 362.046 203.3C358.019 207.956 352.591 208.298 346.956 207.788L345.919 207.686C345.689 207.662 345.407 207.605 345.1 207.543C344.428 207.408 343.642 207.249 343.056 207.359C342.92 207.53 342.544 207.93 342.47 208.363C342.126 210.366 342.371 212.337 342.87 214.296C343.15 215.397 343.458 216.494 343.767 217.59C345.11 222.366 346.45 227.129 345.426 232.177C344.284 237.809 340.246 242.583 334.682 244.265C330.651 245.482 326.59 245.063 322.515 244.642C321.404 244.527 320.292 244.412 319.18 244.33C313.829 243.936 309.948 244.949 309.481 251.036C309.313 253.218 309.796 255.441 310.276 257.654C311.014 261.054 311.747 264.432 310.113 267.61C309.775 268.268 309.025 268.413 308.366 268.321C301.694 267.391 298.011 258.332 297.341 252.446C296.599 245.929 298.926 238.811 304.179 234.692C309.265 230.703 315.699 230.714 321.819 231.333L321.991 231.351C322.549 231.412 323.144 231.494 323.756 231.579C327.973 232.164 332.998 232.861 332.093 227.176C331.681 224.589 330.867 222.165 330.056 219.752C328.873 216.228 327.697 212.726 327.793 208.771C327.955 202.084 331.256 195.559 337.969 193.405C340.813 192.493 343.568 192.665 346.409 192.995L348.217 193.216C348.609 193.316 349.002 193.386 349.399 193.434C349.268 192.872 349.163 192.382 349.117 192.157L349.057 191.831ZM561.209 228.85C554.388 227.026 547.21 229.511 542.519 234.661C538.577 238.99 536.535 244.306 534.711 249.74L533.669 252.866C532.153 257.292 530.411 260.805 524.992 259.117C522.93 258.475 520.951 257.692 518.988 256.916C514.337 255.076 509.783 253.274 504.472 253.483C497.606 253.754 490.887 256.707 486.107 261.657C481.217 266.72 478.883 273.774 479.921 280.725L479.989 281.15C480.53 284.352 485.213 295.78 490.177 290.519C492.392 288.173 491.955 285.576 492.481 282.595C492.981 279.755 494.051 276.97 495.804 274.667C498.912 270.585 503.911 268.994 508.798 270.438C515.244 272.343 520.937 276.27 527.881 276.362C535.186 276.46 541.388 272.672 545.417 266.725C548.67 261.924 549.83 256.305 552.119 251.085L552.339 250.587C554.261 246.292 555.571 244.741 559.973 246.795L561.511 247.533C568.102 250.664 575.515 253.531 582.33 249.115C588.661 245.014 591.36 236.772 586.035 230.771C583.097 227.458 576.296 228.022 574.387 232.272C574.052 233.003 573.741 233.744 573.435 234.487C572.852 234.309 572.285 234.093 571.747 233.791C568.175 232.181 565.073 229.884 561.209 228.85ZM183.119 266.009C172.737 255.328 154.72 261.118 147.619 272.448C146.146 274.797 148.579 277.775 151.165 277.061C152.887 276.587 154.807 275.723 156.822 274.818C162.037 272.473 167.888 269.843 172.6 272.921C176.503 275.471 175.548 281.337 174.799 285.939C174.619 287.046 174.451 288.079 174.365 288.976L174.301 289.666C173.74 295.962 173.613 304.576 178.517 309.288C181.339 312.001 185.668 311.634 189.39 311.247L190.574 311.124C194.962 310.683 199.321 309.909 203.524 308.559C207.388 307.319 211.049 305.634 214.679 303.849L215.587 303.401C215.766 303.312 215.992 303.194 216.254 303.057C218.342 301.963 222.732 299.665 224.158 301.429C224.932 302.388 223.214 306.345 222.612 307.733C222.563 307.844 222.522 307.94 222.49 308.015C220.862 311.821 218.792 315.405 217.299 319.279C214.668 326.104 214.448 333.804 218.143 340.317C221.723 346.628 229.48 351.741 236.355 346.893C240.291 344.117 240.28 339.067 236.355 336.289C234.278 334.819 232.184 333.85 231.326 331.384C230.206 328.169 231.647 324.758 233.042 321.782L234.712 318.241C238.412 310.334 242.109 301.24 236.94 293.158C231.602 284.813 220.753 284.681 212.546 288.157C207.862 290.141 203.588 292.802 198.707 294.337C195.33 295.4 191.94 296.11 188.481 296.499C187.989 293.845 188.255 290.988 188.514 288.194C188.662 286.608 188.808 285.041 188.812 283.543C188.83 277.262 187.66 270.681 183.119 266.009ZM685.99 335.693C687.066 329.947 693.632 328.886 698.035 330.793C700.38 331.808 703.437 334.675 706.233 335.599L706.382 335.262C706.642 333.127 708.078 331.037 710.266 330.623C721.378 328.52 725.331 341.527 718.043 348.778C714.16 352.642 708.11 353.37 703.01 351.989C701.671 351.627 700.428 351.091 699.23 350.472C697.354 356.451 694.626 362.1 690.012 366.563C682.707 373.628 672.794 375.558 663.235 372.255C661.936 371.807 660.325 371.025 658.555 370.165C652.387 367.172 644.278 363.236 640.675 369.162C638.18 373.266 637.047 378.282 635.665 382.837L635.552 383.212C634.25 387.598 633.29 392.274 629.498 395.12C628.348 395.983 626.459 395.532 625.522 394.607C619.102 388.274 623.065 373.341 625.997 365.534L626.314 364.706C629.949 355.414 637.604 349.468 647.881 350.442C652.946 350.922 657.455 352.655 662.08 354.676C662.566 354.888 663.07 355.118 663.587 355.354C667.166 356.984 671.404 358.916 675.156 357.541C682.021 355.025 684.058 346.293 685.337 339.309L685.99 335.693ZM363.661 348.19C361.048 343.589 352.276 345.235 353.003 351.076L353.235 352.894C353.533 355.382 353.598 357.72 351.879 359.933C349.793 362.619 346.222 363.431 342.981 363.02C340.12 362.658 337.692 361.341 335.285 360.036C331.918 358.211 328.595 356.409 324.191 357.275C318.061 358.481 313.828 363.497 311.377 368.966C308.782 374.758 308.837 381.037 306.904 387.001C304.678 393.86 299.931 393.544 294.003 391.144L292.727 390.62C292.389 390.479 292.051 390.338 291.713 390.197C286.375 387.963 280.989 385.71 275.047 386.769C264.552 388.642 255.514 404.779 265.347 412.571C267.122 413.977 270.224 413.243 270.149 410.583L270.139 410.079C270.089 405.239 271.31 398.992 276.858 397.851C280.72 397.057 284.913 399.098 288.883 401.032C290.959 402.043 292.975 403.024 294.851 403.555C309 407.557 317.06 396.908 319.463 384.313L319.55 383.831C320.318 379.422 320.924 371.264 325.535 369.2C327.379 368.374 329.316 369.692 331.037 370.863C331.61 371.253 332.158 371.627 332.672 371.899C335.865 373.593 339.291 374.669 342.903 374.944C356.265 375.963 371.448 361.91 363.661 348.19ZM743.625 350.815C743.649 345.667 735.649 345.661 735.625 350.815C735.33 416.036 704.818 476.322 699.337 540.895C698.903 546.025 706.905 545.996 707.337 540.895C712.82 476.303 743.33 416.141 743.625 350.815ZM397.628 414.395C406.028 403.897 418.32 392.925 432.634 399.349C437.882 401.704 441.829 406.424 443.017 412.08C443.922 416.393 443.269 420.549 442.61 424.747C442.339 426.478 442.066 428.215 441.901 429.974C440.631 443.474 456.738 436.633 465.329 432.985C466.471 432.5 467.481 432.071 468.299 431.754L468.708 431.599C479.903 427.474 495.573 428.983 500.799 441.44C503.415 447.677 501.561 453.795 499.232 459.737L498.686 461.126C497.169 465.079 497.571 465.706 499.181 468.219C499.58 468.841 500.052 469.578 500.588 470.509C502.506 473.841 501.558 479.026 497.881 480.834C488.422 485.482 480.428 477.7 480.381 468.119C480.362 464.277 481.417 460.643 483.002 457.183C483.401 456.312 484.01 455.353 484.645 454.353C485.938 452.318 487.338 450.113 487.289 448.141C487.131 441.705 475.704 444.531 472.572 445.612L471.988 445.816C470.302 446.415 468.638 447.072 466.976 447.729C461.371 449.943 455.806 452.141 449.584 451.994C442.591 451.828 435.124 449.117 431.297 442.913C427.243 436.343 428.491 429.03 430.119 421.965L430.568 420.035C432.1 413.174 430.194 408.14 422.5 406.813C414.358 405.41 407.036 410.015 400.406 414.186C400.115 414.369 399.826 414.551 399.538 414.732L398.423 415.427C397.74 415.849 397.195 414.937 397.628 414.395ZM795.012 436.642C795.024 436.198 794.478 435.858 794.095 436.116C785.198 442.097 779.246 454.585 782.589 465.224C784.212 470.39 787.664 474.921 792.51 477.429C798.535 480.545 805.188 479.359 811.518 478.026L814.207 477.451C816.102 477.052 817.972 476.76 819.901 477.292C820.563 477.475 821.331 478.052 821.96 478.176C821.7 478.618 821.424 479.385 821.284 479.669L820.825 480.592C820.365 481.527 819.916 482.499 819.634 483.482C818.688 486.777 818.922 490.315 820.454 493.39C823.308 499.118 829.294 502.347 835.526 502.895C836.677 502.997 838.371 502.755 840.227 502.49C844.354 501.899 849.28 501.195 850.806 503.912C855.196 511.73 867.697 506.472 865.267 497.815C863.624 491.962 858.963 488.18 853.188 486.597C850.111 485.754 846.926 485.868 843.797 486.213C842.571 486.348 841.349 486.538 840.122 486.668L839.207 486.753C839.291 486.743 838.742 486.724 838.019 486.699C837.189 486.67 836.131 486.632 835.54 486.593L835.778 485.952C835.813 485.861 835.845 485.782 835.874 485.721C837.118 483.06 838.04 480.409 837.965 477.436C837.828 472.075 834.358 467.398 829.799 464.817C825.596 462.436 820.591 461.486 815.813 462.017C814.029 462.216 811.989 462.827 809.872 463.461C805.755 464.694 801.342 466.017 797.932 464.569C794.041 462.917 792.72 457.156 792.66 453.381C792.612 450.383 793.225 447.467 793.838 444.55C794.387 441.935 794.937 439.319 795.012 436.642ZM67.6296 456.676C72.6416 454.286 78.8116 452.806 83.0236 457.576C86.7483 461.796 85.8156 467.521 84.6173 472.662L83.2861 478.241C82.6368 480.944 81.9806 483.644 81.3806 486.36C81.2106 487.127 81.0096 487.91 80.8066 488.702C82.4792 488.059 84.2233 487.339 86.0072 486.602C99.0653 481.212 114.256 474.94 119.151 491.442C121.093 497.993 118.886 503.935 116.34 509.774L114.972 512.882C114.6 513.732 114.314 515.65 113.89 516.898C114.09 516.849 114.287 516.8 114.475 516.751C114.508 516.587 115.874 515.698 116.668 515.179L117.345 514.729C119.866 513.126 123.832 514.381 125.188 516.947C128.826 523.83 123.741 531.743 116.714 533.624C109.32 535.604 101.647 532.294 98.4006 525.319C94.9647 517.936 98.0131 511.189 101.033 504.503C101.344 503.816 101.654 503.13 101.956 502.445L102.273 501.72C102.84 500.407 103.102 499.114 103.37 497.797L103.577 496.804C102.285 497.772 99.3986 498.157 97.8406 498.709L84.7626 503.344L84.0242 503.611C83.6793 503.738 83.3322 503.869 82.9831 504C79.7036 505.231 76.248 506.529 72.7646 505.763C62.3766 503.475 64.5636 492.658 66.8146 485.226L67.3536 483.453C68.4364 479.908 69.5532 476.366 70.7926 472.874C71.4156 471.12 72.1496 469.409 72.7816 467.661C73.1266 466.809 73.4196 465.941 73.6606 465.055C69.8096 465.666 65.9656 467.389 62.2726 468.575C57.3586 470.155 52.4286 471.246 47.3636 472.22C45.3636 472.603 44.2926 470.11 45.9916 468.964C52.8976 464.3 60.1016 460.265 67.6296 456.676ZM331.863 528.515C336.783 524.895 343.02 529.867 343.248 535.048C343.641 543.946 333.265 547.819 325.88 546.628C324.445 546.397 323.038 545.891 321.693 545.408C318.145 544.133 315.025 543.012 312.94 547.482C310.311 553.116 310.7 559.851 309.328 565.824C307.805 572.46 304.436 578.938 298.322 582.388C289.987 587.088 282.152 584.178 274.232 581.236C270.522 579.858 266.793 578.473 262.986 577.86C257.312 576.948 253.336 579.656 252.203 585.378C251.105 590.921 252.943 596.086 254.776 601.235C255.673 603.756 256.569 606.274 257.119 608.83C257.244 609.406 256.636 609.962 256.086 609.624C243.499 601.887 235.977 582.763 247.476 570.722C255.946 561.851 266.437 565.19 276.487 568.388C279.065 569.208 281.615 570.02 284.094 570.613L284.406 570.685C290.51 572.041 293.761 569.571 294.791 563.245C295.877 556.573 295.117 549.934 297.432 543.427C299.916 536.444 304.754 529.866 312.379 528.192C316.81 527.221 320.802 528.281 324.953 529.598L326.535 530.106C327.439 530.394 328.292 530.634 329.208 530.637L329.522 530.298C330.288 529.684 331.069 529.091 331.863 528.515ZM615.785 575.725C608.904 572.112 600.421 573.486 594.222 577.864C587.271 582.773 583.86 590.314 581.54 598.284C579.852 604.087 579.043 612.089 574.192 616.291C569.575 620.289 562.406 617.548 556.687 615.362C555.411 614.874 554.208 614.414 553.121 614.062C545.91 611.731 537.245 610.776 530.209 614.225C523.314 617.606 519.991 624.501 519.279 631.888C518.614 638.782 519.602 647.861 523.535 653.63C523.922 654.198 524.661 654.052 524.906 653.45C527.491 647.085 526.993 639.803 529.092 633.216C531.333 626.185 536.585 624.697 543.253 626.589C550.208 628.561 556.577 632.253 563.73 633.567C571.356 634.968 578.907 633.524 584.919 628.484C589.977 624.244 593.04 618.068 595.11 611.915C597.127 605.916 597.456 597.885 601.752 592.905C602.836 591.648 604.725 590.13 606.479 589.969C608.327 589.799 609.339 590.724 610.522 591.806C611.006 592.249 611.52 592.719 612.132 593.15C617.685 597.068 626.549 597.147 629.949 590.255C631.062 587.998 631.614 584.794 629.949 582.585C627.03 578.714 624.633 578.746 620.781 579.583C620.658 579.48 620.521 579.347 620.368 579.167L620.25 579.024C619.231 577.733 617.252 576.496 615.785 575.725ZM834.657 600.485C837.912 597.558 842.858 596.999 846.5 599.597C848.798 601.236 849.764 603.388 849.432 606.122L849.392 606.417L849.003 608.224C848.751 609.361 848.444 610.636 848.257 610.979C847.746 611.913 847.047 612.753 846.487 613.661C844.938 616.172 843.606 618.804 841.514 620.936C836.263 626.294 828.255 626.324 822.265 622.282C821.062 621.471 818.571 618.573 816.64 617.567C816.931 617.914 816.511 618.473 816.013 619.137C815.694 619.562 815.342 620.03 815.125 620.513C812.577 626.174 812.529 632.409 809.27 637.921C805.665 644.02 799.051 647.976 791.887 647.548C786.224 647.209 781.618 644.365 777.146 641.258L774.393 639.326L774.099 639.12C770.326 636.477 766.044 633.477 761.907 637.254C759.071 639.844 759.664 643.248 760.256 646.643C760.58 648.504 760.903 650.362 760.662 652.08C760.405 653.909 758.362 654.886 756.775 655.04C748.852 655.806 744.642 644.835 744.739 638.548C744.87 630.018 750.45 622.699 758.239 619.598C766.107 616.464 774.068 618.26 781.074 622.608C784.06 624.461 786.795 626.702 789.842 628.46C791.178 629.231 792.528 629.895 793.123 629.559C794.742 628.644 795.231 624.9 795.606 623.053L795.686 622.688C796.618 618.725 797.418 614.93 799.287 611.255C803.228 603.507 811.431 597.464 820.457 599.89C823.921 600.819 826.734 602.904 829.426 605.179L829.604 605.327C829.666 605.377 829.73 605.428 829.796 605.48L830.209 605.8C831.526 603.807 833.56 601.538 834.463 600.667L834.657 600.485ZM111.406 654.519L109.618 653.458C103.762 650.002 97.7297 646.815 90.6356 648.415C83.8776 649.938 79.0836 655.425 76.5646 661.608C75.3746 664.529 74.7536 667.475 74.2946 670.587C74.0366 672.329 73.8626 674.086 73.5566 675.821L73.4542 676.359C73.3157 677.049 73.1037 678.012 72.9106 678.846C71.0666 678.034 69.2096 676.747 67.7006 675.983L66.4836 675.371C63.6275 673.949 60.656 672.596 57.5436 671.938C50.8016 670.513 43.3226 672.574 39.4686 678.614C36.1723 683.778 36.2396 689.867 37.5007 695.655L37.5906 696.058C38.1376 698.46 40.9646 708.079 45.0766 706.676C49.0756 705.311 49.6096 699.995 49.9126 696.453L49.9351 696.115C49.9571 695.684 49.9618 695.175 49.9669 694.622C49.9932 691.751 50.0306 687.668 52.5666 686.818C55.3167 685.897 59.9163 688.71 63.4853 690.893C64.8206 691.709 66.0116 692.438 66.9076 692.849C72.7926 695.551 79.2576 696.349 84.0466 691.091C88.3404 686.377 88.7026 679.477 89.8139 673.499L90.1009 671.993C90.6904 668.955 91.8311 664.102 95.1926 664.225C97.9396 664.327 100.956 667.173 103.22 668.524C105.719 670.016 108.314 671.259 111.026 672.319C117.355 674.793 124.392 675.583 131.125 674.853C135.026 674.431 137.566 672.568 138.945 668.9C139.412 667.823 139.768 666.712 140.014 665.563C142.2 657.35 130.256 651.487 125.852 658.835C120.771 658.642 116.041 657.274 111.406 654.519Z" transform="translate(30.9999 -61.99936)" fill="#000000" fill-rule="evenodd" stroke="none"></path></g><g transform="translate(225 0)"><g><g><path d="M361.406 119.845C361.07 107.887 343.677 102.922 338.652 114.765C338.34 115.082 338.001 115.387 337.683 115.66C339.256 114.311 335.967 116.543 335.432 116.819C334.974 117.055 334.506 117.268 334.039 117.488C330.807 87.1942 319.835 54.5362 291.483 39.3302C251.939 20.1542 206.246 16.4112 162.863 18.3162C140.886 19.6202 115.508 23.1342 95.9827 12.0162C89.8987 8.55221 85.0217 3.09921 78.1467 0.958206C56.4437 -4.91279 46.5997 17.3732 49.5557 35.7002C40.2987 35.7732 31.1157 40.8982 27.1207 49.3362C24.7747 54.3302 24.8157 59.7192 22.7927 64.7312C16.5857 77.4412 7.70466 86.5772 12.7257 101.987C3.89466 112.036 8.92966 127.249 16.0557 136.87C19.5747 141.874 23.7657 146.678 26.3437 152.279C28.8457 157.642 25.0687 164.002 22.9667 169.086C7.42666 205.935 8.31466 246.516 16.6767 284.952C-0.103336 292.233 -5.13934 314.993 5.80266 329.324C9.56766 334.39 14.1607 336.27 19.3697 339.387C25.9617 343.015 20.5777 357.547 22.6887 364.565C25.5567 381.698 41.1567 392.249 56.5817 381.123C66.3697 379.642 74.2647 408.121 81.3727 415.269C85.7517 421.029 90.6137 426.201 95.8997 430.974C111.65 471.499 192.356 492.049 232.258 489.703C274.043 485.328 302.232 449.842 325.704 418.348C337.757 401.567 345.596 382.785 348.447 362.3C351.311 341.712 350.058 321.087 348.122 300.474C344.055 256.678 337.639 193.582 333.496 149.313C348.468 148.08 361.86 135.333 361.406 119.845L361.406 119.845Z" transform="translate(68.99953 24.00009)" fill="#FFFFFF" stroke="none"></path><path d="M0.486308 0.4125C0.472308 0.4745 0.493308 0.5215 0.507308 0.5875C0.510309 0.5685 0.513308 0.5585 0.518308 0.5355C0.506308 0.4855 0.497308 0.4525 0.486308 0.4125" transform="translate(103.5312 117.1017)" fill="#4F66AF" stroke="none"></path><path d="M0.6075 0.5795C0.5525 0.5215 0.4745 0.4785 0.3965 0.4205C0.3945 0.4225 0.3935 0.4245 0.3925 0.4265C0.4655 0.4745 0.5355 0.5295 0.6075 0.5795" transform="translate(103.4061 117.5714)" fill="#4F66AF" stroke="none"></path><path d="M92.577 3.59013C80.654 -3.49687 64.53 -0.209872 60.947 14.5061C59.697 19.6378 60.1842 25.0115 60.6693 30.362C60.9906 33.9063 61.3111 37.4404 61.125 40.8871C52.513 39.3501 43.208 41.7991 37.216 48.5231C31.175 55.3011 29.559 64.0491 31.536 72.1821C23.395 75.3081 16.656 82.0031 14.174 90.5871C12.097 97.7671 13.186 105.279 16.552 111.635C14.611 113.232 12.922 115.243 11.626 117.635C6.53997 127.02 10.733 137.6 17.31 144.99C23.604 152.062 31.758 157.155 40.617 160.673C29.005 176.821 22.67 197.235 19.61 216.484C17.726 228.335 16.987 240.437 17.595 252.427C17.92 258.847 18.773 265.271 19.792 271.615L19.8929 272.255C20.4939 276.122 21.0264 280.493 22.619 284.173C13.091 288.766 5.64997 297.603 2.10897 307.759C-3.55203 323.994 2.66097 342.547 15.044 353.963C18.125 356.803 21.558 359.387 25.262 361.358L28.283 363.017C27.9441 364.04 27.8327 366.443 27.7452 367.752L27.6685 368.732C27.0459 376.898 28.4666 385.823 33.292 392.582C39.001 400.577 48.369 404.03 57.964 401.933C62.199 401.007 66.164 398.759 69.061 395.553C71.237 393.144 72.355 390.591 72.522 387.986C76.081 402.915 84.156 416.486 93.813 428.277C98.785 434.347 104.173 440.023 110.077 445.194L110.471 445.543C111.051 446.062 111.68 446.647 112.351 447.27C117.257 451.829 124.35 458.421 130.226 456.126C132.278 455.324 133.955 453.651 133.909 451.289C133.762 444.012 124.16 440.168 119.098 436.173C113.169 431.494 107.497 426.414 102.224 421.008C92.6523 411.197 84.3739 400.367 75.9506 389.605L73.749 386.799C73.38 386.33 72.8 386.559 72.539 386.978C72.465 384.521 71.566 382.03 69.895 379.58C67.573 376.173 62.023 374.376 58.784 377.796L57.537 378.351C56.232 379.124 55.168 380.138 54.319 381.365L53.956 381.649C53.7649 381.793 53.538 381.955 53.2914 382.109L53.2151 382.153C53.3614 382.051 53.1985 382.079 52.9158 382.128C52.6581 382.172 52.3012 382.234 51.991 382.229L51.405 382.205L50.881 382.047C50.465 381.594 49.189 380.342 49.053 380.126C48.598 379.399 48.3359 378.728 48.0867 377.966L47.872 377.288C46.927 374.236 46.9669 370.97 47.144 367.798L47.2586 365.88C47.5235 361.147 47.4291 356.768 44.626 352.626C42.4652 349.433 39.3809 347.7 36.0209 346.11L34.7318 345.505C28.3201 342.423 23.3477 337.948 19.994 331.579C13.618 319.467 18.061 304.167 29.325 296.589C41.12 288.652 59.766 293.073 67.007 305.087C67.361 305.673 68.307 305.293 68.121 304.617C65.069 293.518 56.716 285.138 46.096 282.08C46.556 279.449 45.72 276.146 44.084 273.988C42.177 265.129 40.303 256.378 39.415 247.304C38.388 236.798 38.352 226.214 39.027 215.682C39.9438 201.349 42.9687 187.559 46.2336 173.76L48.698 163.4C54.858 165.152 61.178 166.259 67.321 166.808C74.473 167.446 81.554 167.387 88.58 166.822C94.807 183.737 94.57 202.998 86.875 219.518C84.1532 225.36 80.2374 231.124 76.2658 236.969C67.1003 250.459 57.6371 264.387 61.863 280.737C64.531 291.056 80.27 288.824 80.329 278.237C80.3893 267.581 84.1738 258.892 89.0596 249.694L90.1054 247.741C95.5851 237.494 100.225 227.382 101.767 215.724C104.007 198.789 100.497 181.302 92.11 166.496C121.985 163.38 150.9 151.553 180.07 145.199C202.315 140.354 227.239 139.305 247.589 151.123C247.962 151.339 248.257 150.798 247.92 150.556C219.564 130.105 182.84 133.008 150.325 140.215C145.116 141.37 139.86 142.651 134.57 143.941C108.19 150.372 80.9504 157.012 54.287 149.217C46.296 146.881 38.541 143.044 32.285 137.487C29.531 135.041 26.131 131.783 25.588 127.917C25.409 126.641 25.465 125.767 26.218 124.757C26.5906 124.257 27.0957 123.996 27.4385 123.819C27.8168 123.623 27.9974 123.529 27.584 123.33C36.885 127.813 44.845 114.756 35.77 109.325L35.4261 109.113C24.2485 102.032 30.002 85.8252 42.97 86.2301L43.2321 86.2346C50.5105 86.2564 52.6786 77.5533 48.612 72.6111L48.3869 72.3297C41.159 63.0212 53.521 51.7737 62.93 57.3711L63.1598 57.503C67.6081 59.9632 72.285 57.2242 73.968 52.8801C76.7438 45.7137 76.2934 38.3684 75.8399 30.971C75.6907 28.5375 75.5411 26.0984 75.506 23.6581L75.4905 22.6087C75.4656 20.2867 75.548 17.246 76.911 15.9011C80.043 12.8116 85.3277 16.4632 88.4321 18.7987L90.4298 20.3171C94.9581 23.8084 99.1961 27.6024 104.088 30.6221C109.427 33.9201 115.225 36.5421 121.114 38.6921C132.534 42.8611 144.819 44.7321 156.926 45.3231C173.3 46.1224 190.561 43.8137 207.958 41.4868C243.191 36.7744 278.978 31.9877 309.076 52.7941C319.733 60.1611 327.088 70.9331 330.883 83.2531C335.163 97.1461 333.697 111.534 337.199 125.475C338.737 131.598 349.44 132.385 350.397 125.475C350.527 124.539 350.688 123.587 350.85 122.628C351.256 120.23 351.669 117.785 351.62 115.419C351.544 111.731 350.724 107.868 350.213 104.219L349.99 102.659C349.077 96.4151 347.92 90.157 346.367 84.0471C343.045 70.9741 336.852 58.6601 327.241 49.0821C309.4 31.3021 283.294 24.0331 258.698 23.2631C242.089 22.7432 225.67 24.9303 209.249 27.1176C194.243 29.1164 179.235 31.1155 164.08 31.0491C151.039 30.9921 138.023 29.4011 125.684 25.0251C119.473 22.8221 113.587 19.7031 108.261 15.8191C102.904 11.9131 98.312 6.99813 92.577 3.59013ZM118.578 54.5781C116.779 53.8291 116.027 56.5131 117.349 57.4911C124.453 62.7431 133.173 65.0201 141.866 63.1291C144.697 62.5131 144.086 57.9481 141.181 58.0651C133.317 58.3791 125.906 57.6291 118.578 54.5781ZM291.607 65.7657C290.311 65.2647 288.941 67.0467 289.755 68.1757C293.486 73.3497 297.957 77.8747 301.778 82.9697C305.612 88.0807 308.814 93.4517 313.35 97.9987C315.784 100.439 319.929 97.9567 319.069 94.6697C315.813 82.2267 303.426 70.3337 291.607 65.7657ZM96.1019 73.7327C95.1539 72.7857 96.1079 70.8997 97.4699 71.3817C105.165 74.1067 112.918 76.4647 121.002 77.7017C125.984 78.4634 130.993 78.4186 136.007 78.3738C139.326 78.3441 142.647 78.3144 145.963 78.5187C149.33 78.7257 151.623 83.9637 147.88 85.5937C131.248 92.8347 108.658 86.2687 96.1019 73.7327ZM74.9896 99.28C73.2166 97.592 75.0606 94.714 77.3156 95.284C89.2086 98.295 100.987 101.957 113.352 102.321C119.528 102.502 125.669 102.015 131.787 101.216L134.884 100.805C139.655 100.182 144.508 99.6931 149.224 100.673C152.368 101.326 152.982 105.376 151.023 107.489C141.772 117.468 123.928 116.514 111.659 114.832C98.3356 113.004 84.8926 108.714 74.9896 99.28ZM280.182 101.687L280.075 101.681C279.266 101.683 278.835 102.921 279.453 103.447C284.735 107.943 289.893 112.926 293.644 118.808C295.466 121.663 296.988 124.707 298.09 127.913C299.291 131.411 299.68 135.037 301.395 138.345C304.269 143.889 311.971 140.792 312.358 135.375C312.943 127.204 306.118 118.016 300.71 112.448C295.095 106.666 288.178 102.72 280.182 101.687ZM236.288 107.192C235.543 106.98 235.006 108.139 235.746 108.477C254.141 116.891 268.093 130.319 278.983 147.145C280.015 148.738 281.572 149.205 283.364 148.927C284.317 148.779 284.818 148.29 285.325 147.628L285.682 147.145C286.459 146.079 286.356 144.306 285.682 143.229C274.628 125.576 256.129 112.858 236.288 107.192ZM368.572 111.808C370.253 108.961 374.71 109.534 375.597 112.726L375.725 113.004C376.204 114.092 375.986 114.315 375.093 113.699C377.305 115.521 378.306 118.235 377.63 121.153C373.978 136.913 356.127 148.167 340.565 146.618C339.207 146.483 339.022 144.814 340.253 144.316C346.24 141.892 351.554 137.955 355.827 133.124C359.98 128.428 361.727 123.055 363.961 117.384C364.799 115.255 366.103 113.722 367.94 112.885C368.183 112.549 368.395 112.191 368.572 111.808ZM373.024 134.504C377.942 130.418 385.689 134.18 384.023 140.907C382.21 148.233 374.358 153.239 367.876 156.249C361.204 159.346 354.705 159.943 347.426 159.605L347.336 159.585C349.357 167.688 350.503 176.111 352.049 184.263C354.011 194.605 355.941 204.952 357.842 215.304C359.681 225.31 362.006 235.329 363.419 245.385C364.844 255.536 366.212 265.694 367.612 275.848C369.948 292.807 371.834 309.844 373.823 326.851L374.77 334.902C376.762 351.941 378.365 369.002 374.591 385.959C371.054 401.851 363.086 416.675 353.844 429.941C344.793 442.931 334.682 455.421 323.583 466.72C302.174 488.511 275.774 505.964 244.818 509.201C231.489 510.595 217.253 509.044 204.722 504.199L203.89 503.874C191.205 498.865 175.671 490.29 172.37 476.219C170.343 467.587 179.238 460.848 187.037 464.944C190.65 466.842 193.367 469.011 196.333 471.73L196.86 472.216C199.284 474.467 200.217 475.159 203.014 476.92C208.751 480.529 213.051 482.237 219.567 483.877C231.581 486.899 244.547 486.421 256.743 482.847C282.637 475.259 302.725 455.459 319.934 435.606C329.278 424.825 338.147 413.516 344.987 400.951C352.164 387.768 355.477 373.927 355.278 358.927C355.053 342.002 352.714 325.011 351.179 308.166C349.615 290.993 348.169 273.826 346.895 256.629C345.701 240.502 345.586 224.302 345.169 208.125L345.087 205.092C344.842 196.504 344.672 187.913 344.477 179.323C344.431 177.299 344.358 175.269 344.286 173.236C344.05 166.664 343.814 160.067 344.488 153.555C344.551 152.934 345.388 152.777 345.592 153.405C346.112 155.003 346.567 156.626 346.997 158.258C347.063 158.208 347.137 158.163 347.227 158.132C352.931 156.172 358.184 152.259 362.464 148.039C366.548 144.012 368.681 138.113 373.024 134.504ZM36.792 318.206C44.688 314.342 54.046 314.956 61.933 318.618L62.4674 318.872C71.0783 323.047 82.4829 332.803 79.746 343.179C78.144 349.247 71.402 351.319 66.174 348.7C61.807 346.511 60.811 342.598 58.62 338.667C57.071 335.887 55.156 333.714 52.907 331.479C48.166 326.77 42.841 323.272 36.792 320.473C35.92 320.069 35.95 318.619 36.792 318.206Z" transform="translate(55.00003 15.00067)" fill="#000000" fill-rule="evenodd" stroke="none"></path></g></g><g transform="translate(159 186)"><g><path d="M161.26 3.75829C151.862 0.105287 135.062 -2.96371 127.162 5.02229C122.951 9.28029 125.484 15.1363 130.37 17.1713C133.516 18.4822 136.949 18.183 140.337 17.8877C141.669 17.7716 142.993 17.6562 144.29 17.6393C148.84 17.5813 153.361 18.1643 157.793 19.1723C161.357 19.9847 164.836 21.1098 168.293 22.2873L170.595 23.0773C171.32 23.3264 172.054 23.61 172.797 23.8967C175.616 24.9851 178.553 26.1192 181.532 25.5913C182.229 25.4673 182.565 24.7623 182.634 24.1453C183.089 20.0982 179.892 16.2352 177.024 13.4278L176.386 12.8144L175.972 12.4263C171.724 8.48129 166.624 5.84429 161.26 3.75829ZM33.6232 10.8211L35.7926 10.2262L38.0047 9.62924L39.5005 9.23374C49.7753 6.54436 61.1082 4.17756 71.2972 5.33309C75.0132 5.75509 78.0292 7.84609 78.5552 11.7391C78.9982 15.0241 76.8752 19.2621 73.2622 19.8461C61.2952 21.7821 49.0442 21.1541 37.0222 23.1501C31.0352 24.1431 25.0942 25.3761 19.1302 26.4871C14.5952 27.3331 9.90917 27.6301 5.33517 28.3141L6.38617 28.4601C6.75417 28.5101 6.66217 29.1291 6.29917 29.1041C4.79154 28.9536 3.28162 28.9302 1.7694 29.0359L1.12117 29.0891C0.134167 29.2281 -0.447833 28.0501 0.432167 27.4521C6.00517 23.6711 10.7342 19.5731 16.9742 16.7861C22.3712 14.3761 27.9262 12.3891 33.6232 10.8211ZM166.634 45.6655C168.478 45.1131 169.779 45.3742 171.441 46.2403C172.719 46.9059 173.589 47.9568 174.088 49.1838C174.599 50.4395 174.707 51.8878 174.454 53.2296C173.406 58.8007 170.042 63.7442 165.503 66.9282C161.091 70.0227 155.589 71.452 150.049 70.2614C146.003 69.3919 140.008 65.5531 136.85 60.8711C135.504 58.8752 134.671 56.736 134.581 54.6232C134.495 52.6084 135.008 50.5771 137.676 47.8994C137.936 47.8184 138.208 47.7747 138.477 47.7747C139.138 47.7747 139.821 48.0516 140.274 48.4513C141.469 49.502 142.312 50.8319 143.178 52.2626L143.41 52.6451C143.799 53.2818 144.2 53.9109 144.69 54.476C146.449 56.5028 149.003 58.2218 151.683 58.6693C154.167 59.0845 156.407 58.3485 158.181 56.9599C160.257 55.3353 161.713 52.8432 162.253 50.1809C162.472 49.1021 163.036 48.1297 163.818 47.3478C164.607 46.5588 165.615 45.9718 166.634 45.6655ZM49.1162 69.4299C47.1005 71.4882 44.4385 72.6496 41.0316 71.9587C38.3694 71.4193 33.3005 68.7424 29.2512 64.6199C26.481 61.7996 24.1647 58.2755 23.535 54.193C23.3888 53.2449 22.8856 52.6371 22.225 52.2543C21.7033 51.952 21.0154 51.8002 20.2661 51.876C19.6299 51.9404 18.9544 52.1708 18.4324 52.4762C17.4395 53.0572 17.0334 53.8821 16.9509 54.498C16.1543 60.4416 18.4501 66.3391 22.0288 71.3116C26.8584 78.0223 33.951 82.9399 38.1196 84.0909C45.2534 86.0617 52.7703 84.4928 58.3124 79.5277C62.7443 75.5578 65.0159 70.3856 67.1236 65.0671L67.53 64.0361C68.0041 62.8293 68.4745 61.6313 68.9729 60.4461C69.9719 58.0711 69.652 56.0181 68.6834 54.418C67.6103 52.6454 65.6296 51.3976 63.4246 51.0143C61.3865 50.6601 59.2055 51.0476 57.4838 52.2925C56.0293 53.3441 54.8564 55.0104 54.4397 57.4743C53.762 61.4809 52.1899 66.0779 49.4178 69.111L49.1162 69.4299Z" transform="translate(51.99983 63.00011)" fill="#000000" fill-rule="evenodd" stroke="none"></path></g></g><g transform="translate(123 338)"><g><path d="M57.4005 3.42841C64.6505 1.69041 84.6205 -2.68059 95.7415 2.32841C108.247 -2.15859 132.409 2.27041 146.695 13.1914C159.748 23.1704 164.542 47.8034 152.83 49.3394C146.82 50.1278 142.779 48.1512 138.106 45.8656C135.181 44.4347 132.008 42.8828 127.95 41.8124C115.573 38.5464 100.237 36.5274 93.4465 32.7924C84.1465 38.0664 73.6755 39.4194 63.7495 40.9694C58.8906 41.7217 53.7682 43.3334 48.6268 44.951C40.8306 47.404 32.9907 49.8707 25.9595 49.3754C24.2265 50.1684 12.4445 45.3134 18.3495 29.8904C23.5895 16.2054 40.5455 7.47041 57.4005 3.42841ZM106.754 85.109C107.748 94.2859 109.415 109.689 117.761 107.654C124.018 106.128 136.982 95.5207 144.652 91.4247C155.51 88.3318 159.242 93.9786 157.63 102.754C156.863 106.93 146.098 123.977 142.275 128.084C125.474 146.137 97.8637 153.49 74.2653 148.708C50.9963 146.91 -1.44122 127.033 0.0303418 120.343C3.35502 105.228 14.2105 108.644 24.5514 111.898C26.9282 112.646 29.2777 113.385 31.5023 113.889C41.6163 115.754 52.7443 116.403 62.3633 116.437C75.9374 113.479 73.4727 92.1514 72.5501 84.1674C72.4472 83.2774 72.3635 82.5532 72.3233 82.0387C71.7057 74.129 76.2826 61.4116 88.4583 60.7567C100.634 60.1018 105.437 75.2808 106.288 81.1667C106.443 82.2379 106.589 83.588 106.754 85.109Z" transform="translate(112.1728 28.99979)" fill="#000000" fill-rule="evenodd" stroke="none"></path></g></g><g transform="translate(47 241)"><g><path d="M400.241 22.4717C406.555 19.4817 413.812 19.6607 420.603 20.5487C434.349 26.9267 404.861 34.3147 401.349 27.5287C404.801 52.9717 394.935 94.8897 366.724 108.133C334.13 124.07 298.773 99.8287 300.056 60.9787C293.067 59.2817 297.925 39.7137 300.739 31.7647C288.447 29.8527 276.738 28.7257 264.894 32.4797C271.42 50.8857 248.187 106.288 225.854 117.325C208.541 129.283 169.496 123.951 153.944 105.365C142.844 91.1707 137.3 58.2287 143.442 35.3387C143.388 35.3147 143.332 35.2967 143.279 35.2697C142.912 38.8697 118.056 38.4687 119.298 32.3037C83.5946 32.9447 49.0266 38.4207 13.6856 42.2807C9.41771 42.6777 9.20869 45.7037 9.00443 48.6607C8.82951 51.1931 8.65807 53.675 5.94363 54.4117C-4.52237 54.6617 0.226628 36.3637 9.44663 34.6657C18.2509 33.7459 27.1162 32.5506 36.011 31.3514C64.1217 27.5615 92.5269 23.7319 120.232 28.4287C124.112 23.4993 131.1 25.2524 136.795 26.6809C138.398 27.083 139.898 27.4593 141.198 27.6537C145.902 -0.109269 221.595 1.54173 246.677 12.8057C273.452 9.72473 301.309 7.96173 327.861 5.72573C344.673 0.333732 364.25 -2.44827 381.745 2.80973C384.166 2.67632 384.439 3.06209 384.978 3.82285C385.074 3.95736 385.177 4.10358 385.303 4.26073C392.194 7.30073 398.297 14.2087 400.241 22.4717ZM391.09 53.2827C381.556 117.772 315.002 124.904 303.177 60.8817C305.075 60.0507 306.44 58.4147 306.155 55.2387C306.088 41.2867 310.419 26.5407 323.005 18.7817C336.011 10.7757 351.232 9.98173 366.283 10.1837C395.005 9.49973 394.401 33.5067 391.09 53.2827ZM264.265 30.6657C272.34 25.1737 283.744 24.8557 292.758 25.2357C295.861 25.4177 300.059 25.2717 302.99 26.8347C306.149 20.6497 311.009 15.2997 316.233 11.7387C313.192 11.9693 310.141 12.2092 307.085 12.4496C288.207 13.9342 269.092 15.4374 250.449 14.8917C256.277 18.3047 262.045 24.6877 264.265 30.6657ZM253.026 60.1197C228.031 146.156 165.64 108.656 158.838 97.6297C146.569 79.3837 144.261 35.0297 154.948 23.1707C167.469 14.393 184.251 14.6491 199.84 14.8869C203.297 14.9396 206.695 14.9915 209.975 14.9437C243.176 15.3917 266.756 25.3237 253.026 60.1197Z" transform="translate(-1.999528 9.999668)" fill="#000000" fill-rule="evenodd" stroke="none"></path></g></g></g></g></svg>